<?xml version="1.0" standalone="no"?>
<!DOCTYPE svg PUBLIC "-//W3C//DTD SVG 20010904//EN"
 "http://www.w3.org/TR/2001/REC-SVG-20010904/DTD/svg10.dtd">
<svg version="1.0" xmlns="http://www.w3.org/2000/svg"
 width="24.000000pt" height="24.000000pt" viewBox="0 0 24.000000 24.000000"
 preserveAspectRatio="xMidYMid meet">

<g transform="translate(0.000000,24.000000) scale(0.100000,-0.100000)"
fill="#000000" stroke="none">
<path d="M55 202 c-35 -6 -40 -10 -43 -37 -3 -30 -2 -31 58 -42 50 -9 69 -9
102 3 44 15 54 13 45 -10 -8 -21 -91 -31 -149 -17 -66 15 -68 14 -68 -11 0
-19 2 -20 10 -8 8 13 14 13 53 -1 28 -10 52 -13 66 -8 12 5 38 10 59 12 35 4
37 6 40 42 3 30 0 37 -12 32 -60 -23 -101 -28 -147 -17 -30 7 -49 18 -49 26 0
17 11 17 60 3 43 -13 160 5 142 23 -12 12 -115 18 -167 10z"/>
<path d="M160 53 c-43 -11 -63 -12 -98 -3 -59 15 -65 6 -7 -10 37 -10 57 -10
105 0 33 7 60 17 60 21 0 5 -1 9 -2 8 -2 0 -28 -7 -58 -16z"/>
</g>
</svg>
