<?xml version="1.0" standalone="no"?>
<!DOCTYPE svg PUBLIC "-//W3C//DTD SVG 20010904//EN"
 "http://www.w3.org/TR/2001/REC-SVG-20010904/DTD/svg10.dtd">
<svg version="1.0" xmlns="http://www.w3.org/2000/svg"
 width="24.000000pt" height="24.000000pt" viewBox="0 0 24.000000 24.000000"
 preserveAspectRatio="xMidYMid meet">

<g transform="translate(0.000000,24.000000) scale(0.100000,-0.100000)"
fill="#000000" stroke="none">
<path d="M17 199 c-14 -16 -17 -34 -15 -95 l3 -76 118 -1 117 -2 0 77 c0 65
-3 81 -20 98 -24 24 -36 25 -72 6 -24 -13 -32 -13 -55 0 -36 18 -54 17 -76 -7z
m77 -12 c13 -10 16 -24 14 -68 l-3 -55 -32 8 c-33 8 -33 9 -33 68 0 51 3 60
18 60 10 0 26 -6 36 -13z m106 -47 c0 -59 0 -60 -32 -68 l-33 -8 -3 55 c-3 59
10 81 50 81 15 0 18 -9 18 -60z m-120 -85 c0 -2 -13 -5 -30 -7 -19 -3 -30 0
-30 7 0 7 11 10 30 7 17 -2 30 -5 30 -7z m140 2 c0 -10 -10 -12 -32 -8 l-33 5
30 7 c17 4 31 7 33 8 1 0 2 -5 2 -12z"/>
</g>
</svg>
