<?xml version="1.0" standalone="no"?>
<!DOCTYPE svg PUBLIC "-//W3C//DTD SVG 20010904//EN"
 "http://www.w3.org/TR/2001/REC-SVG-20010904/DTD/svg10.dtd">
<svg version="1.0" xmlns="http://www.w3.org/2000/svg"
 width="24.000000pt" height="24.000000pt" viewBox="0 0 24.000000 24.000000"
 preserveAspectRatio="xMidYMid meet">

<g transform="translate(0.000000,24.000000) scale(0.100000,-0.100000)"
fill="#000000" stroke="none">
<path d="M90 205 c-15 -18 -10 -45 13 -59 34 -22 73 27 47 59 -16 19 -44 19
-60 0z m53 -19 c9 -22 -19 -42 -37 -26 -19 15 -10 40 14 40 10 0 20 -6 23 -14z"/>
<path d="M24 165 c-8 -21 2 -45 19 -45 8 0 20 7 27 15 10 12 10 18 0 30 -7 8
-19 15 -27 15 -7 0 -16 -7 -19 -15z m31 -25 c-5 -8 -11 -8 -17 -2 -6 6 -7 16
-3 22 5 8 11 8 17 2 6 -6 7 -16 3 -22z"/>
<path d="M170 165 c-11 -13 -11 -19 3 -32 21 -21 49 -9 45 19 -4 28 -30 35
-48 13z m35 -25 c-5 -8 -11 -8 -17 -2 -6 6 -7 16 -3 22 5 8 11 8 17 2 6 -6 7
-16 3 -22z"/>
<path d="M75 121 c-6 -5 -23 -11 -40 -13 -28 -3 -30 -6 -30 -43 l0 -40 115 0
115 0 0 40 c0 37 -2 40 -30 43 -16 2 -34 8 -40 13 -5 5 -25 9 -45 9 -20 0 -40
-4 -45 -9z m83 -48 l3 -43 -40 0 c-41 0 -41 0 -41 38 0 47 6 54 45 50 28 -3
30 -6 33 -45z m-98 -8 c0 -28 -4 -35 -19 -35 -26 0 -34 15 -27 46 4 15 14 24
26 24 16 0 20 -7 20 -35z m166 11 c7 -31 -1 -46 -27 -46 -15 0 -19 7 -19 35 0
28 4 35 20 35 12 0 22 -9 26 -24z"/>
</g>
</svg>
