<?xml version="1.0" standalone="no"?>
<!DOCTYPE svg PUBLIC "-//W3C//DTD SVG 20010904//EN"
 "http://www.w3.org/TR/2001/REC-SVG-20010904/DTD/svg10.dtd">
<svg version="1.0" xmlns="http://www.w3.org/2000/svg"
 width="339.000000pt" height="362.000000pt" viewBox="0 0 339.000000 362.000000"
 preserveAspectRatio="xMidYMid meet">

<g transform="translate(0.000000,362.000000) scale(0.100000,-0.100000)"
fill="#000000" stroke="none">
<path d="M1510 3471 c-112 -24 -196 -49 -245 -74 -49 -24 -136 -26 -425 -7
-293 19 -422 -5 -460 -87 -13 -29 -19 -33 -58 -33 -46 0 -107 -26 -133 -56
-45 -54 -44 -8 -44 -1454 0 -1310 1 -1367 19 -1402 10 -21 33 -47 51 -58 31
-19 48 -20 604 -20 476 0 571 -2 571 -14 0 -23 42 -68 79 -83 27 -12 80 -15
234 -14 229 1 270 11 308 76 l22 36 541 -1 c586 -2 596 -1 654 53 56 52 53
-36 52 1440 l0 1361 -23 46 c-31 63 -75 90 -148 90 -44 0 -59 4 -59 14 0 27
-50 74 -98 93 -42 16 -70 17 -252 13 -113 -2 -275 -4 -360 -4 -153 0 -156 0
-232 33 -120 51 -178 62 -353 66 -129 4 -177 1 -245 -14z m375 -40 c103 -19
193 -52 316 -116 97 -51 199 -126 194 -143 -3 -7 -1 -11 4 -8 10 6 78 -59 119
-112 24 -32 24 -33 6 -48 -18 -15 -18 -15 2 -5 17 8 24 4 47 -24 15 -19 27
-41 27 -49 0 -8 5 -18 10 -21 21 -13 8 -34 -40 -65 -67 -43 -64 -48 5 -9 31
17 57 30 58 28 12 -18 36 -80 41 -104 6 -28 2 -33 -60 -73 -36 -24 -67 -42
-69 -40 -1 2 -10 19 -20 38 -36 72 -117 133 -295 220 -124 62 -400 88 -689 66
-234 -18 -468 -99 -573 -199 -50 -49 -76 -97 -84 -160 -6 -42 -4 -46 28 -71
20 -15 54 -29 81 -32 41 -6 57 -1 164 50 96 47 217 96 323 132 8 3 58 13 110
22 162 29 336 1 526 -84 17 -7 40 -17 50 -21 34 -14 159 -87 162 -95 2 -4 18
-10 35 -13 65 -12 177 51 177 100 0 15 19 32 70 63 39 23 74 42 79 42 5 0 11
-18 13 -40 l3 -39 -112 -72 c-62 -39 -113 -73 -113 -75 0 -6 113 57 179 98 25
15 49 28 53 28 4 0 8 -18 8 -39 l0 -39 -212 -136 c-326 -207 -322 -209 21 -12
101 59 187 104 190 100 13 -12 2 -204 -17 -304 -20 -101 -38 -151 -105 -290
-95 -196 -259 -356 -461 -450 -124 -58 -171 -71 -293 -80 -185 -14 -365 13
-510 76 -17 8 -35 14 -40 14 -14 0 -123 60 -159 87 -17 13 -36 23 -42 23 -7 0
-12 7 -12 15 0 8 -6 15 -13 15 -21 0 -187 167 -187 188 0 5 -8 17 -18 28 -19
20 -62 97 -85 154 -8 19 -20 49 -27 65 -17 39 -30 90 -36 140 l-5 40 81 49
c44 27 80 50 80 53 0 5 4 7 -88 -47 -40 -23 -76 -40 -79 -36 -12 12 -7 310 6
366 93 398 273 640 586 789 103 49 140 61 223 71 80 10 296 5 367 -9z m1007
-87 c20 -4 46 -15 57 -26 23 -21 28 -55 8 -55 -7 0 -55 -27 -107 -60 -52 -32
-123 -76 -157 -97 -35 -21 -63 -40 -63 -42 0 -6 22 6 188 103 78 45 145 83
148 83 2 0 3 -39 2 -86 l-3 -85 -129 -75 c-71 -41 -132 -74 -137 -74 -5 0 -17
17 -28 38 -10 20 -38 62 -60 92 -23 30 -41 57 -41 60 0 3 36 25 80 49 70 39
99 65 87 78 -3 2 -44 -21 -93 -52 -48 -30 -91 -55 -94 -55 -4 0 -17 12 -31 26
l-24 26 28 20 c15 11 27 26 27 34 0 18 -2 18 -45 -7 -30 -18 -38 -19 -54 -8
-10 8 -47 34 -82 59 l-64 45 265 5 c146 3 270 6 275 8 6 1 27 -1 47 -4z
m-1762 -11 c-1 -11 -130 -89 -141 -85 -6 1 -30 -12 -55 -29 -47 -35 -61 -52
-18 -24 14 9 27 15 29 13 2 -2 -22 -30 -52 -63 -100 -108 -185 -250 -223 -370
-7 -22 -17 -46 -23 -53 -6 -7 -11 -25 -12 -40 -2 -31 -22 -185 -34 -254 -4
-25 -4 -54 0 -65 3 -10 9 -61 13 -113 l6 -95 -82 -47 -83 -47 -3 211 c-2 159
1 214 10 226 10 12 10 14 1 8 -10 -5 -13 4 -13 33 0 39 2 42 78 92 87 59 117
84 57 49 -88 -50 -124 -70 -129 -70 -3 0 -6 49 -6 110 l0 109 45 31 c58 40 58
50 0 16 l-45 -27 0 44 c0 42 2 45 65 91 36 26 65 49 65 51 0 3 -27 -11 -59
-30 -33 -19 -62 -35 -65 -35 -3 0 -6 39 -6 87 0 76 3 90 23 111 l22 25 -22
-12 c-23 -12 -23 -11 -23 67 0 43 3 82 7 85 9 10 673 9 673 0z m-790 -111 c0
-5 -11 -14 -25 -20 -26 -12 -33 -4 -13 16 14 14 38 16 38 4z m2814 -21 c6 -9
-74 -61 -93 -61 -23 0 -10 29 22 49 34 22 62 27 71 12z m46 -76 c0 -12 -126
-95 -144 -95 -3 0 -6 8 -6 18 0 11 25 33 67 59 67 41 83 45 83 18z m-221 -151
c-1 -41 -7 -78 -13 -83 -15 -13 -188 -112 -198 -114 -10 -2 -60 112 -55 127 4
13 250 154 260 149 4 -3 7 -38 6 -79z m229 64 c-6 -16 -148 -101 -156 -93 -9
8 17 30 82 69 64 38 80 44 74 24z m-2945 -30 c-18 -18 -36 -28 -40 -24 -8 8
45 56 62 56 5 0 -5 -14 -22 -32z m107 -33 c0 -5 -137 -115 -144 -115 -4 0 -6
10 -6 23 0 16 15 31 63 59 57 33 87 45 87 33z m2830 -24 c0 -12 -141 -94 -148
-86 -7 7 -6 7 68 54 69 42 80 47 80 32z m-1280 -39 c89 -12 171 -31 184 -43 6
-5 20 -9 33 -9 47 0 205 -78 257 -127 69 -66 80 -127 30 -174 -20 -19 -28 -21
-42 -11 -47 32 -181 112 -189 112 -5 0 -28 9 -51 20 -22 11 -47 20 -55 20 -7
0 -17 3 -20 7 -4 4 -40 15 -80 26 -84 22 -320 31 -407 15 -74 -13 -239 -69
-390 -133 -160 -68 -183 -72 -209 -46 -44 44 -14 131 66 196 79 64 163 101
309 134 121 28 140 29 309 26 99 -2 214 -8 255 -13z m1278 -44 c-3 -7 -13 -18
-24 -23 -10 -6 -41 -23 -67 -39 -26 -16 -51 -25 -55 -21 -4 3 0 10 8 15 8 5
40 25 70 44 60 38 74 42 68 24z m-2838 -12 c0 -5 -127 -96 -134 -96 -3 0 -6 6
-6 14 0 8 28 30 63 50 59 34 77 41 77 32z m2620 -23 c0 -16 -4 -33 -8 -38 -9
-13 -171 -115 -182 -115 -11 0 -24 59 -15 68 13 14 180 110 193 111 7 1 12
-11 12 -26z m210 -47 c0 -2 -7 -7 -16 -10 -8 -3 -12 -2 -9 4 6 10 25 14 25 6z
m-2880 -51 c-20 -24 -80 -58 -88 -50 -4 4 -2 9 3 12 6 2 28 14 50 27 49 29 51
30 35 11z m2670 -26 c0 -30 -20 -47 -137 -114 -37 -22 -38 -21 -47 21 -7 31
-5 32 81 81 48 28 91 49 96 46 4 -2 7 -17 7 -34z m220 -12 c0 -30 -6 -36 -65
-70 -77 -44 -87 -45 -83 -10 2 21 18 36 73 70 39 23 71 43 73 43 1 0 2 -15 2
-33z m-2830 -17 c0 -12 -140 -104 -147 -96 -13 12 8 33 68 69 67 39 79 43 79
27z m2608 -122 l-3 -71 -75 -47 c-41 -26 -78 -46 -82 -43 -5 2 -8 35 -8 73 l0
68 78 46 c42 25 81 45 85 46 4 0 7 -32 5 -72z m222 12 c0 -25 -8 -34 -68 -70
-38 -22 -71 -40 -75 -40 -4 0 -7 13 -7 28 0 24 10 34 68 69 37 23 70 42 75 42
4 1 7 -12 7 -29z m-2830 13 c0 -5 -22 -22 -48 -39 -26 -17 -59 -39 -74 -48
-25 -16 -28 -16 -28 -3 0 9 30 34 68 56 69 41 82 47 82 34z m0 -90 c0 -9 -104
-78 -132 -88 -10 -4 -18 -3 -18 3 0 6 30 29 68 51 69 41 82 47 82 34z m2830
-48 c0 -32 -5 -37 -69 -75 -38 -22 -72 -40 -76 -40 -3 0 -5 14 -3 32 3 27 13
38 73 75 38 24 71 43 72 43 2 0 3 -16 3 -35z m-220 -19 c0 -26 -7 -39 -27 -54
-33 -23 -132 -82 -138 -82 -3 0 -5 17 -5 39 0 36 3 40 73 84 39 25 78 45 85
46 7 1 12 -12 12 -33z m-2610 -41 c0 -20 -14 -34 -69 -70 -38 -25 -72 -45 -76
-45 -3 0 -5 15 -3 32 3 28 12 38 68 70 36 21 68 38 72 38 5 0 8 -11 8 -25z
m2608 -113 c1 -43 -2 -82 -6 -88 -8 -13 -202 -128 -207 -122 -1 1 7 48 20 103
l22 99 79 47 c43 26 82 45 85 43 4 -2 7 -39 7 -82z m219 44 c-6 -16 -136 -90
-144 -82 -13 13 10 37 74 75 63 38 82 40 70 7z m-2827 -54 c0 -11 -26 -33 -69
-60 -37 -23 -71 -42 -75 -42 -4 0 -6 10 -4 22 2 15 24 34 68 60 74 43 80 45
80 20z m2828 -53 c-3 -27 -13 -37 -67 -70 -36 -22 -68 -39 -73 -39 -4 0 -8 13
-8 29 0 24 10 35 63 69 77 50 89 52 85 11z m-2835 -50 c-17 -17 -137 -89 -141
-84 -9 9 12 26 71 59 62 36 91 46 70 25z m2617 -72 c0 -36 -5 -70 -12 -79 -16
-19 -308 -201 -314 -195 -2 2 11 33 29 68 18 35 41 83 50 106 15 38 28 49 119
103 57 33 109 60 116 60 8 0 12 -19 12 -63z m-2336 -2 c6 -29 4 -32 -61 -69
-37 -22 -83 -48 -100 -58 l-33 -20 0 40 c0 40 1 41 88 95 48 29 90 51 93 48 4
-3 10 -20 13 -36z m2556 1 c0 -32 -5 -37 -70 -75 -72 -41 -87 -40 -78 5 2 13
127 102 146 104 1 0 2 -15 2 -34z m-2830 -21 c0 -20 -14 -34 -69 -70 -38 -25
-72 -45 -75 -45 -3 0 -6 13 -6 30 0 25 8 34 68 69 37 22 70 40 75 41 4 0 7
-11 7 -25z m305 -80 c6 -28 2 -32 -62 -68 -37 -20 -87 -48 -111 -62 -23 -14
-45 -25 -48 -25 -3 0 -4 17 -2 37 3 35 8 40 103 100 55 34 103 59 107 55 4 -4
10 -21 13 -37z m2525 -17 c0 -15 -11 -29 -33 -42 -111 -64 -117 -66 -117 -41
0 13 123 103 143 105 4 0 7 -10 7 -22z m-228 -42 c-3 -35 -9 -49 -26 -58 -37
-19 -450 -280 -461 -291 -5 -6 6 -1 25 10 19 12 96 56 170 98 74 43 168 98
207 122 40 23 75 43 78 43 3 0 5 -65 5 -144 l0 -144 -35 -22 c-19 -12 -35 -24
-35 -27 0 -2 16 5 35 17 l35 22 0 -65 0 -66 -57 -32 c-82 -46 -293 -180 -293
-185 0 -3 10 0 22 7 26 14 252 144 296 171 l32 20 0 -41 0 -41 -125 -81 c-69
-45 -125 -83 -125 -86 0 -2 15 4 33 15 84 51 208 122 212 122 7 0 5 -410 -2
-410 -5 0 -30 -21 -58 -46 l-50 -45 58 32 57 31 0 -150 0 -149 -86 -7 c-47 -4
-89 -5 -92 -2 -3 4 4 16 15 29 39 43 33 46 -24 14 -32 -18 -67 -36 -77 -40
-26 -10 -107 2 -100 15 4 6 -3 5 -15 -1 -12 -7 -47 -11 -79 -9 l-57 3 87 70
c48 38 85 71 84 73 -2 1 -57 -28 -122 -66 l-119 -70 -197 -4 c-112 -2 -194 0
-191 5 3 5 -4 4 -15 -2 -18 -10 -161 -41 -187 -41 -5 0 8 12 30 26 22 15 45
31 50 37 11 11 -85 -41 -99 -55 -19 -16 -26 -7 -26 32 0 40 1 41 88 96 89 58
135 93 72 57 -19 -11 -63 -37 -97 -56 l-63 -36 0 47 0 47 90 59 c50 32 90 60
90 63 0 4 -64 -32 -132 -74 -21 -13 -40 -23 -43 -23 -3 0 -5 24 -5 53 l0 52
85 54 c130 83 103 76 -40 -11 -16 -10 -33 -18 -37 -18 -5 0 -8 96 -8 213 l0
213 43 12 c97 29 283 42 772 56 83 2 159 7 169 12 19 7 19 8 0 15 -10 4 -144
5 -297 3 -258 -4 -318 1 -241 20 15 4 68 31 118 60 90 52 193 146 269 245 18
24 57 57 87 75 63 38 196 120 255 158 22 14 42 24 45 23 3 -2 4 -24 2 -49z
m-2602 19 c0 -8 -27 -33 -60 -55 -80 -55 -90 -58 -90 -29 0 19 14 32 68 61 75
42 82 44 82 23z m354 -65 c16 -33 27 -62 25 -64 -3 -3 -267 -159 -291 -173 -4
-2 -7 34 -7 79 l0 83 112 67 c62 37 117 67 122 68 6 0 24 -27 39 -60z m2476
-13 c0 -13 -14 -23 -86 -63 -91 -51 -85 -20 6 36 71 43 80 46 80 27z m-2395
-123 c30 -47 34 -59 23 -69 -16 -14 -364 -225 -372 -225 -3 0 -6 35 -6 79 l0
78 103 63 c146 91 211 130 212 130 1 0 19 -25 40 -56z m2395 27 c0 -13 -22
-32 -71 -60 -71 -41 -93 -45 -73 -13 10 16 121 90 137 91 4 1 7 -8 7 -18z
m-2830 -66 c0 -13 -127 -105 -144 -105 -3 0 -6 10 -6 23 0 17 15 30 68 59 76
42 82 44 82 23z m2830 -34 c0 -13 -20 -31 -65 -56 -71 -39 -78 -41 -83 -26 -3
9 122 99 141 100 4 1 7 -8 7 -18z m-2304 -39 l21 -27 -225 -130 c-123 -71
-229 -131 -233 -133 -5 -2 -9 14 -9 35 l1 38 202 126 c111 69 207 124 212 122
6 -3 20 -16 31 -31z m-526 -27 c0 -13 -127 -105 -144 -105 -3 0 -6 9 -6 19 0
13 22 32 68 59 77 46 82 48 82 27z m591 -36 c16 -11 29 -24 29 -29 0 -14 -198
-122 -243 -131 -90 -19 -88 -18 -82 -42 5 -19 -8 -29 -105 -84 l-111 -62 3 41
3 41 185 115 c102 63 205 127 230 143 55 34 55 34 91 8z m2239 3 c0 -17 -114
-92 -140 -92 -26 0 -5 24 58 65 76 50 82 52 82 27z m-2139 -78 c30 -20 75 -47
102 -60 26 -13 47 -27 47 -30 0 -3 -42 -3 -92 0 -51 3 -138 6 -193 6 -82 1
-97 3 -81 13 10 7 51 33 90 59 39 25 72 47 72 47 1 1 26 -15 55 -35z m-691 6
c0 -13 -21 -32 -68 -60 -78 -46 -82 -47 -82 -21 0 12 23 32 68 59 77 48 82 49
82 22z m2830 -20 c0 -10 -139 -94 -146 -87 -6 6 19 26 80 64 55 34 66 38 66
23z m-2830 -78 c0 -7 -132 -92 -144 -92 -3 0 -6 6 -6 13 0 6 28 28 63 49 62
36 87 45 87 30z m2826 -47 c-4 -12 -124 -85 -139 -85 -4 0 -7 10 -7 23 0 16
19 34 73 69 66 44 72 46 75 27 2 -11 1 -26 -2 -34z m-1903 -16 c72 -6 155 -12
182 -14 28 -2 70 -7 95 -12 25 -4 52 -8 60 -9 8 0 21 -2 28 -3 9 -1 12 -57 12
-245 0 -236 -1 -245 -20 -251 -11 -4 -18 -11 -15 -16 6 -8 -9 -13 -28 -10 -5
1 -5 -4 -1 -10 5 -9 2 -10 -10 -6 -9 4 -15 3 -12 -2 3 -5 -62 -50 -145 -101
-112 -69 -164 -95 -200 -101 -78 -12 -555 -23 -544 -12 6 5 71 45 145 88 161
94 377 227 405 250 27 22 32 25 -310 -173 l-300 -173 -55 6 c-101 12 -110 4
240 205 107 62 211 122 230 133 106 62 114 65 208 70 53 3 90 2 87 -3 -3 -5 7
-3 22 5 15 8 36 15 45 15 9 0 24 3 33 6 28 11 -4 24 -61 24 -67 0 -115 10
-108 22 4 6 -3 5 -14 -1 -23 -12 -302 -16 -302 -3 0 4 53 39 118 79 105 65
174 112 147 100 -5 -2 -77 -44 -159 -93 -154 -91 -185 -101 -296 -103 -57 -1
-122 -19 -115 -32 4 -5 41 -9 83 -9 46 0 72 -4 66 -9 -7 -8 -83 -55 -342 -215
-10 -6 -12 11 -10 84 l3 91 165 101 c91 55 170 105 175 110 6 6 -6 2 -25 -9
-60 -35 -233 -134 -277 -160 l-43 -24 0 44 c0 24 6 49 13 56 10 11 10 13 0 7
-10 -5 -13 11 -13 68 l0 75 137 85 137 86 218 0 c120 -1 278 -5 351 -11z
m-923 -18 c0 -8 -131 -91 -144 -91 -3 0 -6 4 -6 9 0 5 33 28 73 50 82 46 77
44 77 32z m2830 -54 c0 -13 -117 -87 -138 -87 -25 0 -9 17 55 58 72 45 83 49
83 29z m-2830 -32 c0 -9 -141 -87 -147 -81 -8 8 -8 8 62 50 54 32 85 44 85 31z
m2813 -100 c-10 -8 -29 -20 -43 -27 -14 -7 -37 -20 -51 -30 -14 -10 -29 -15
-33 -11 -16 16 0 35 67 78 68 43 72 45 75 25 2 -12 -4 -27 -15 -35z m-2913
-30 c0 -2 -10 -9 -22 -15 -22 -11 -22 -10 -4 4 21 17 26 19 26 11z m100 -40
c0 -24 -43 -61 -117 -99 l-33 -17 0 33 c0 30 6 37 63 70 75 44 87 45 87 13z
m2816 -48 c-40 -29 -126 -70 -133 -64 -13 14 12 41 78 84 l64 43 3 -26 c2 -15
-3 -30 -12 -37z m-2816 -75 c0 -23 -10 -34 -69 -70 -37 -23 -71 -42 -75 -42
-4 0 -6 14 -4 31 2 25 12 36 48 56 25 14 54 32 65 39 28 20 35 17 35 -14z
m699 9 l63 -6 -133 -77 c-74 -42 -219 -126 -324 -186 -218 -127 -225 -128
-225 -34 l0 57 203 127 202 127 75 -1 c41 0 104 -3 139 -7z m2131 -25 c0 -12
-127 -96 -145 -96 -18 0 6 24 65 64 71 49 80 53 80 32z m-2830 -114 c0 -23
-10 -34 -69 -70 -37 -23 -71 -42 -75 -42 -3 0 -6 15 -6 33 0 29 6 36 63 69 76
44 87 46 87 10z m2828 16 c-5 -16 -136 -93 -144 -85 -6 6 125 97 139 97 5 0 7
-6 5 -12z m-1528 -87 l0 -50 -111 -65 c-107 -64 -114 -66 -178 -66 l-66 0 175
115 c96 63 176 115 178 115 1 0 2 -22 2 -49z m1530 -13 c0 -18 -15 -31 -63
-58 -111 -63 -115 -50 -10 30 36 28 68 50 69 50 2 0 4 -10 4 -22z m-2832 -35
c-3 -14 -34 -37 -130 -93 -15 -9 -18 -7 -18 12 0 18 14 32 63 60 69 41 90 46
85 21z m1302 -76 c0 -56 -32 -78 -102 -70 -27 3 -48 8 -48 12 0 5 140 101 148
101 1 0 2 -19 2 -43z m1527 1 c-2 -8 -29 -26 -58 -42 -59 -32 -57 -25 11 28
44 35 57 39 47 14z m-2825 -33 c5 -22 -4 -31 -65 -70 -39 -25 -76 -45 -84 -45
-15 0 -17 24 -3 50 9 16 124 89 141 90 4 0 9 -11 11 -25z m1298 -55 c0 -5 -4
-10 -10 -10 -5 0 -10 5 -10 10 0 6 5 10 10 10 6 0 10 -4 10 -10z m-1191 -19
c15 -10 24 -3 -123 -95 -50 -31 -96 -56 -102 -56 -14 0 -29 38 -20 48 4 3 46
29 94 58 85 51 123 62 151 45z m1671 -1 c0 -5 -9 -10 -20 -10 -11 0 -20 5 -20
10 0 6 9 10 20 10 11 0 20 -4 20 -10z m825 0 c-3 -5 -16 -10 -28 -9 -21 0 -21
1 -2 9 28 12 37 12 30 0z m225 -9 c0 -19 -78 -76 -89 -65 -6 5 70 84 81 84 4
0 8 -9 8 -19z m-2030 -4 c-8 -8 -75 -51 -147 -96 -107 -67 -139 -82 -165 -79
-30 3 -20 10 117 89 155 89 170 97 195 98 13 1 13 -1 0 -12z m189 9 c-2 -2
-66 -43 -142 -90 -124 -79 -207 -114 -207 -90 0 5 58 42 128 81 70 40 137 80
148 88 16 12 86 23 73 11z m136 -5 c-20 -20 -290 -181 -302 -181 -31 0 -4 20
140 102 140 81 187 103 162 79z m544 5 c-25 -25 -459 -296 -474 -296 -60 0
-40 20 107 105 234 135 303 176 306 186 2 5 18 9 35 9 16 0 28 -2 26 -4z m191
0 c0 -2 -103 -71 -228 -155 -144 -95 -238 -151 -253 -150 -69 2 -58 14 88 99
81 47 194 113 252 147 90 53 141 75 141 59z m43 -3 c-7 -2 -19 -2 -25 0 -7 3
-2 5 12 5 14 0 19 -2 13 -5z m-1288 -13 c-3 -5 -64 -46 -136 -90 -109 -68
-137 -81 -166 -78 -37 3 -23 13 241 161 33 18 71 23 61 7z m1332 -76 c-103
-68 -134 -85 -159 -82 -28 3 -15 12 113 85 79 46 151 83 159 83 8 0 -43 -39
-113 -86z m-1680 62 c-9 -7 -71 -46 -136 -85 -101 -62 -124 -72 -157 -69 -38
3 -37 4 101 85 104 61 149 83 175 82 31 0 33 -1 17 -13z m168 5 c-30 -28 -265
-161 -285 -161 -17 0 -21 3 -13 11 22 22 269 158 288 159 11 0 15 -3 10 -9z
m1754 -9 c-13 -10 -68 -49 -123 -85 -90 -61 -136 -81 -136 -59 0 5 60 43 133
85 129 75 174 96 126 59z m191 14 c0 -2 -51 -41 -112 -87 -96 -70 -118 -82
-148 -80 -19 1 -36 3 -38 5 -1 2 59 40 135 85 122 71 163 91 163 77z m-1140
-21 c10 -12 -4 -25 -87 -78 -54 -35 -102 -66 -108 -69 -5 -3 -30 -3 -55 1
l-45 6 130 77 c72 42 135 77 141 77 6 1 17 -6 24 -14z m1450 -3 c0 -4 -33 -40
-73 -80 l-74 -73 -63 3 -63 3 129 76 c133 79 144 85 144 71z m-205 -21 c-6 -5
-46 -37 -90 -70 -62 -48 -87 -61 -114 -61 -19 0 -32 2 -30 5 3 2 54 33 114 69
103 60 143 79 120 57z m-1180 -51 c-8 -13 -181 -120 -194 -120 -33 0 0 31 87
81 87 50 122 63 107 39z m1416 -51 c-13 -10 -33 -19 -45 -19 -17 1 -13 6 19
25 44 27 62 23 26 -6z"/>
<path d="M2484 2784 c-18 -14 -18 -15 4 -4 12 6 22 13 22 15 0 8 -5 6 -26 -11z"/>
<path d="M1610 2468 c-100 -15 -243 -63 -305 -103 -67 -43 -86 -66 -92 -114
-7 -52 21 -99 86 -141 l49 -31 138 52 c212 78 256 77 460 -12 75 -33 102 -40
130 -36 75 12 124 71 124 147 0 55 -24 101 -70 134 -19 14 -51 37 -70 51 -57
40 -178 66 -295 63 -55 -1 -125 -6 -155 -10z m304 -78 c44 -16 82 -33 85 -38
3 -5 16 -12 28 -16 35 -11 93 -88 93 -123 0 -30 -22 -59 -50 -64 -13 -3 -44
12 -110 50 -8 5 -47 18 -86 30 -143 43 -310 24 -440 -50 -28 -16 -58 -29 -65
-29 -21 0 -69 65 -69 94 0 53 105 128 196 141 22 3 62 12 89 20 28 7 95 14
150 14 87 1 110 -3 179 -29z"/>
<path d="M1669 1960 c-26 -4 -58 -15 -72 -24 -32 -22 -70 -80 -87 -133 -11
-37 -11 -50 4 -96 29 -93 95 -132 202 -121 85 9 149 49 182 114 55 110 4 226
-113 259 -44 12 -50 12 -116 1z m103 -67 c52 -48 68 -83 68 -141 0 -47 -38
-105 -81 -122 -92 -38 -203 91 -175 204 7 30 58 79 88 87 34 8 74 -3 100 -28z"/>
<path d="M494 2524 c-18 -14 -18 -15 4 -4 12 6 22 13 22 15 0 8 -5 6 -26 -11z"/>
<path d="M474 2424 c-18 -14 -18 -15 4 -4 12 6 22 13 22 15 0 8 -5 6 -26 -11z"/>
<path d="M2473 1239 c-46 -29 -41 -36 5 -8 46 28 47 29 36 29 -5 0 -24 -10
-41 -21z"/>
<path d="M2930 1190 c-9 -6 -10 -10 -3 -10 6 0 15 5 18 10 8 12 4 12 -15 0z"/>
<path d="M2037 991 c-116 -24 15 -34 389 -28 201 3 318 8 330 15 10 6 17 12
14 12 -29 6 -705 7 -733 1z"/>
<path d="M818 1244 c-38 -20 -36 -28 2 -9 17 9 30 18 30 20 0 7 -1 6 -32 -11z"/>
<path d="M1254 1214 c-18 -14 -18 -15 4 -4 12 6 22 13 22 15 0 8 -5 6 -26 -11z"/>
<path d="M723 1189 c-29 -17 -53 -33 -53 -36 0 -5 89 44 105 58 16 16 1 9 -52
-22z"/>
<path d="M824 1144 c-18 -14 -18 -15 4 -4 12 6 22 13 22 15 0 8 -5 6 -26 -11z"/>
<path d="M603 1120 c-29 -17 -53 -33 -53 -36 0 -6 88 42 105 57 16 16 1 9 -52
-21z"/>
<path d="M500 1059 l-25 -20 33 16 c17 8 32 18 32 20 0 10 -16 4 -40 -16z"/>
<path d="M1298 924 c-38 -20 -36 -28 2 -9 17 9 30 18 30 20 0 7 -1 6 -32 -11z"/>
</g>
</svg>
